# xmcd
#
# Track frame offsets:
#	150
#	16777
#	29902
#	46787
#	66727
#	81952
#	95100
#	107277
#	119250
#	133702
#	153352
#	172102
#	187177
#	206850
#	222675
#	240802
#
# Disc length: 3403 seconds
#
# Revision: 0
# Processed by: cddbd v1.5.2PL0 Copyright (c) Steve Scherf et al.
# Submitted via: audiograbber 1.83.01
#
DISCID=ec0d4910
DTITLE=Truck Stop - Star Collection  [CD 1/2)
DYEAR=1997
DGENRE=Country and Western
TTITLE0=Angeln entspannt
TTITLE1=Die Frau mit dem Gurt
TTITLE2=Old Texas Town, die Western Stadt
TTITLE3=Cowboy bei der Bahn (LIve)
TTITLE4=Easy Rider
TTITLE5=Der wilde, wilde Westen
TTITLE6=Freizeit Cowboy (Live)
TTITLE7=Ich pfeife auf die Autobahn
TTITLE8=Nashville Tennessee
TTITLE9=Nein Danke, ich rauch nicht mehr
TTITLE10=Route 66
TTITLE11=Emmylou, Emmylou
TTITLE12=Wohin der Wind dich treibt
TTITLE13=Jeden Tag in einer anderen Stadt
TTITLE14=Mutter
TTITLE15=Der König von der Autobahn
EXTD=
EXTT0=
EXTT1=
EXTT2=
EXTT3=
EXTT4=
EXTT5=
EXTT6=
EXTT7=
EXTT8=
EXTT9=
EXTT10=
EXTT11=
EXTT12=
EXTT13=
EXTT14=
EXTT15=
PLAYORDER=
